<mxfile host="app.diagrams.net" modified="2020-11-12T20:54:16.381Z" agent="5.0 (Macintosh; Intel Mac OS X 10_13_6) AppleWebKit/537.36 (KHTML, like Gecko) Chrome/86.0.4240.193 Safari/537.36" etag="rQCJehgv08-3X4kRxfu_" version="13.9.6" type="github">
  <diagram id="DI8BRwrDpLg0POTpZfwL" name="Page-1">
    <mxGraphModel dx="2036" dy="1657" grid="1" gridSize="10" guides="1" tooltips="1" connect="1" arrows="1" fold="1" page="1" pageScale="1" pageWidth="850" pageHeight="1100" math="0" shadow="0">
      <root>
        <mxCell id="0" />
        <mxCell id="1" parent="0" />
        <mxCell id="SwwWCujhyExV8PyOqIJs-1" value="User" style="whiteSpace=wrap;html=1;align=center;" parent="1" vertex="1">
          <mxGeometry x="140" y="80" width="100" height="40" as="geometry" />
        </mxCell>
        <mxCell id="SwwWCujhyExV8PyOqIJs-2" value="" style="endArrow=none;html=1;rounded=0;entryX=1;entryY=1;entryDx=0;entryDy=0;" parent="1" source="SwwWCujhyExV8PyOqIJs-11" target="SwwWCujhyExV8PyOqIJs-10" edge="1">
          <mxGeometry relative="1" as="geometry">
            <mxPoint x="-40" y="90" as="sourcePoint" />
            <mxPoint x="120" y="90" as="targetPoint" />
          </mxGeometry>
        </mxCell>
        <mxCell id="SwwWCujhyExV8PyOqIJs-3" value="" style="endArrow=none;html=1;rounded=0;entryX=0;entryY=0.5;entryDx=0;entryDy=0;exitX=1;exitY=0.5;exitDx=0;exitDy=0;" parent="1" source="SwwWCujhyExV8PyOqIJs-11" target="SwwWCujhyExV8PyOqIJs-1" edge="1">
          <mxGeometry relative="1" as="geometry">
            <mxPoint x="40" y="149.5" as="sourcePoint" />
            <mxPoint x="200" y="149.5" as="targetPoint" />
          </mxGeometry>
        </mxCell>
        <mxCell id="SwwWCujhyExV8PyOqIJs-4" value="" style="endArrow=none;html=1;rounded=0;entryX=0;entryY=1;entryDx=0;entryDy=0;exitX=1;exitY=0;exitDx=0;exitDy=0;" parent="1" source="SwwWCujhyExV8PyOqIJs-9" target="SwwWCujhyExV8PyOqIJs-11" edge="1">
          <mxGeometry relative="1" as="geometry">
            <mxPoint x="30" y="160" as="sourcePoint" />
            <mxPoint x="190" y="160" as="targetPoint" />
          </mxGeometry>
        </mxCell>
        <mxCell id="SwwWCujhyExV8PyOqIJs-5" value="" style="endArrow=none;html=1;rounded=0;exitX=0.92;exitY=0.005;exitDx=0;exitDy=0;exitPerimeter=0;" parent="1" source="SwwWCujhyExV8PyOqIJs-1" target="SwwWCujhyExV8PyOqIJs-12" edge="1">
          <mxGeometry relative="1" as="geometry">
            <mxPoint x="130" y="80" as="sourcePoint" />
            <mxPoint x="232" y="10" as="targetPoint" />
          </mxGeometry>
        </mxCell>
        <mxCell id="SwwWCujhyExV8PyOqIJs-6" value="" style="endArrow=none;html=1;rounded=0;entryX=0;entryY=0.75;entryDx=0;entryDy=0;exitX=0.716;exitY=0.055;exitDx=0;exitDy=0;exitPerimeter=0;" parent="1" source="SwwWCujhyExV8PyOqIJs-8" target="SwwWCujhyExV8PyOqIJs-1" edge="1">
          <mxGeometry relative="1" as="geometry">
            <mxPoint x="90" y="160" as="sourcePoint" />
            <mxPoint x="250" y="160" as="targetPoint" />
          </mxGeometry>
        </mxCell>
        <mxCell id="SwwWCujhyExV8PyOqIJs-7" value="email" style="ellipse;whiteSpace=wrap;html=1;align=center;fontStyle=4" parent="1" vertex="1">
          <mxGeometry x="10" y="-20" width="100" height="40" as="geometry" />
        </mxCell>
        <mxCell id="SwwWCujhyExV8PyOqIJs-8" value="password" style="ellipse;whiteSpace=wrap;html=1;align=center;" parent="1" vertex="1">
          <mxGeometry x="20" y="150" width="100" height="40" as="geometry" />
        </mxCell>
        <mxCell id="SwwWCujhyExV8PyOqIJs-9" value="lastName" style="ellipse;whiteSpace=wrap;html=1;align=center;" parent="1" vertex="1">
          <mxGeometry x="-80" y="130" width="100" height="40" as="geometry" />
        </mxCell>
        <mxCell id="SwwWCujhyExV8PyOqIJs-10" value="firstName" style="ellipse;whiteSpace=wrap;html=1;align=center;" parent="1" vertex="1">
          <mxGeometry x="-70" y="30" width="100" height="40" as="geometry" />
        </mxCell>
        <mxCell id="SwwWCujhyExV8PyOqIJs-11" value="name" style="ellipse;whiteSpace=wrap;html=1;align=center;" parent="1" vertex="1">
          <mxGeometry x="10" y="80" width="100" height="40" as="geometry" />
        </mxCell>
        <mxCell id="SwwWCujhyExV8PyOqIJs-12" value="country" style="ellipse;whiteSpace=wrap;html=1;align=center;" parent="1" vertex="1">
          <mxGeometry x="230" y="-20" width="100" height="40" as="geometry" />
        </mxCell>
        <mxCell id="SwwWCujhyExV8PyOqIJs-13" value="" style="endArrow=none;html=1;rounded=0;entryX=0.736;entryY=0.995;entryDx=0;entryDy=0;exitX=0.25;exitY=0;exitDx=0;exitDy=0;entryPerimeter=0;" parent="1" source="SwwWCujhyExV8PyOqIJs-1" target="SwwWCujhyExV8PyOqIJs-7" edge="1">
          <mxGeometry relative="1" as="geometry">
            <mxPoint x="80" y="69" as="sourcePoint" />
            <mxPoint x="240" y="69" as="targetPoint" />
          </mxGeometry>
        </mxCell>
        <mxCell id="SwwWCujhyExV8PyOqIJs-14" value="" style="endArrow=none;html=1;rounded=0;entryX=0;entryY=0.5;entryDx=0;entryDy=0;exitX=1;exitY=0;exitDx=0;exitDy=0;" parent="1" source="SwwWCujhyExV8PyOqIJs-21" target="SwwWCujhyExV8PyOqIJs-18" edge="1">
          <mxGeometry relative="1" as="geometry">
            <mxPoint x="620" y="140" as="sourcePoint" />
            <mxPoint x="780" y="140" as="targetPoint" />
          </mxGeometry>
        </mxCell>
        <mxCell id="SwwWCujhyExV8PyOqIJs-15" value="" style="endArrow=none;html=1;rounded=0;entryX=0;entryY=0.5;entryDx=0;entryDy=0;exitX=1;exitY=1;exitDx=0;exitDy=0;" parent="1" source="SwwWCujhyExV8PyOqIJs-21" target="SwwWCujhyExV8PyOqIJs-17" edge="1">
          <mxGeometry relative="1" as="geometry">
            <mxPoint x="630" y="150" as="sourcePoint" />
            <mxPoint x="790" y="150" as="targetPoint" />
          </mxGeometry>
        </mxCell>
        <mxCell id="SwwWCujhyExV8PyOqIJs-16" value="Apps" style="whiteSpace=wrap;html=1;align=center;" parent="1" vertex="1">
          <mxGeometry x="580" y="80" width="100" height="40" as="geometry" />
        </mxCell>
        <mxCell id="SwwWCujhyExV8PyOqIJs-17" value="rating" style="ellipse;whiteSpace=wrap;html=1;align=center;" parent="1" vertex="1">
          <mxGeometry x="920" y="110" width="100" height="40" as="geometry" />
        </mxCell>
        <mxCell id="SwwWCujhyExV8PyOqIJs-18" value="version" style="ellipse;whiteSpace=wrap;html=1;align=center;" parent="1" vertex="1">
          <mxGeometry x="920" y="50" width="100" height="40" as="geometry" />
        </mxCell>
        <mxCell id="SwwWCujhyExV8PyOqIJs-19" value="description" style="ellipse;whiteSpace=wrap;html=1;align=center;" parent="1" vertex="1">
          <mxGeometry x="700" y="-10" width="100" height="40" as="geometry" />
        </mxCell>
        <mxCell id="SwwWCujhyExV8PyOqIJs-20" value="name" style="ellipse;whiteSpace=wrap;html=1;align=center;fontStyle=4" parent="1" vertex="1">
          <mxGeometry x="580" y="-20" width="100" height="40" as="geometry" />
        </mxCell>
        <mxCell id="SwwWCujhyExV8PyOqIJs-21" value="ExistsOn" style="shape=rhombus;perimeter=rhombusPerimeter;whiteSpace=wrap;html=1;align=center;" parent="1" vertex="1">
          <mxGeometry x="780" y="70" width="120" height="60" as="geometry" />
        </mxCell>
        <mxCell id="SwwWCujhyExV8PyOqIJs-22" value="Platform" style="whiteSpace=wrap;html=1;align=center;" parent="1" vertex="1">
          <mxGeometry x="790" y="190" width="100" height="40" as="geometry" />
        </mxCell>
        <mxCell id="SwwWCujhyExV8PyOqIJs-23" value="platformName" style="ellipse;whiteSpace=wrap;html=1;align=center;fontStyle=4" parent="1" vertex="1">
          <mxGeometry x="690" y="140" width="100" height="40" as="geometry" />
        </mxCell>
        <mxCell id="SwwWCujhyExV8PyOqIJs-24" value="isMobile" style="ellipse;whiteSpace=wrap;html=1;align=center;" parent="1" vertex="1">
          <mxGeometry x="970" y="160" width="100" height="40" as="geometry" />
        </mxCell>
        <mxCell id="SwwWCujhyExV8PyOqIJs-25" value="" style="endArrow=none;html=1;rounded=0;entryX=0;entryY=0.5;entryDx=0;entryDy=0;exitX=1;exitY=0.5;exitDx=0;exitDy=0;" parent="1" source="SwwWCujhyExV8PyOqIJs-22" target="SwwWCujhyExV8PyOqIJs-24" edge="1">
          <mxGeometry relative="1" as="geometry">
            <mxPoint x="720" y="150" as="sourcePoint" />
            <mxPoint x="880" y="150" as="targetPoint" />
          </mxGeometry>
        </mxCell>
        <mxCell id="SwwWCujhyExV8PyOqIJs-26" value="" style="endArrow=none;html=1;rounded=0;entryX=0;entryY=0.5;entryDx=0;entryDy=0;" parent="1" source="SwwWCujhyExV8PyOqIJs-23" target="SwwWCujhyExV8PyOqIJs-22" edge="1">
          <mxGeometry relative="1" as="geometry">
            <mxPoint x="680" y="260" as="sourcePoint" />
            <mxPoint x="840" y="260" as="targetPoint" />
          </mxGeometry>
        </mxCell>
        <mxCell id="SwwWCujhyExV8PyOqIJs-27" value="" style="endArrow=none;html=1;rounded=0;entryX=0.5;entryY=1;entryDx=0;entryDy=0;exitX=0.5;exitY=0;exitDx=0;exitDy=0;" parent="1" source="SwwWCujhyExV8PyOqIJs-22" target="SwwWCujhyExV8PyOqIJs-21" edge="1">
          <mxGeometry relative="1" as="geometry">
            <mxPoint x="730" y="170" as="sourcePoint" />
            <mxPoint x="890" y="170" as="targetPoint" />
          </mxGeometry>
        </mxCell>
        <mxCell id="SwwWCujhyExV8PyOqIJs-28" value="" style="shape=link;html=1;rounded=0;entryX=1;entryY=0.5;entryDx=0;entryDy=0;exitX=0;exitY=0.5;exitDx=0;exitDy=0;" parent="1" source="SwwWCujhyExV8PyOqIJs-21" target="SwwWCujhyExV8PyOqIJs-16" edge="1">
          <mxGeometry relative="1" as="geometry">
            <mxPoint x="630" y="170" as="sourcePoint" />
            <mxPoint x="690" y="210" as="targetPoint" />
          </mxGeometry>
        </mxCell>
        <mxCell id="SwwWCujhyExV8PyOqIJs-29" value="M" style="resizable=0;html=1;align=right;verticalAlign=bottom;" parent="SwwWCujhyExV8PyOqIJs-28" connectable="0" vertex="1">
          <mxGeometry x="1" relative="1" as="geometry">
            <mxPoint x="20" y="20" as="offset" />
          </mxGeometry>
        </mxCell>
        <mxCell id="SwwWCujhyExV8PyOqIJs-30" value="N" style="resizable=0;html=1;align=right;verticalAlign=bottom;" parent="1" connectable="0" vertex="1">
          <mxGeometry x="860" y="190" as="geometry" />
        </mxCell>
        <mxCell id="SwwWCujhyExV8PyOqIJs-31" value="" style="endArrow=none;html=1;rounded=0;entryX=0.5;entryY=1;entryDx=0;entryDy=0;exitX=0.5;exitY=0;exitDx=0;exitDy=0;" parent="1" source="SwwWCujhyExV8PyOqIJs-16" target="SwwWCujhyExV8PyOqIJs-20" edge="1">
          <mxGeometry relative="1" as="geometry">
            <mxPoint x="550" y="70" as="sourcePoint" />
            <mxPoint x="710" y="70" as="targetPoint" />
          </mxGeometry>
        </mxCell>
        <mxCell id="SwwWCujhyExV8PyOqIJs-32" value="" style="endArrow=none;html=1;rounded=0;entryX=0.228;entryY=0.955;entryDx=0;entryDy=0;entryPerimeter=0;exitX=0.75;exitY=0;exitDx=0;exitDy=0;" parent="1" source="SwwWCujhyExV8PyOqIJs-16" target="SwwWCujhyExV8PyOqIJs-19" edge="1">
          <mxGeometry relative="1" as="geometry">
            <mxPoint x="570" y="80" as="sourcePoint" />
            <mxPoint x="730" y="80" as="targetPoint" />
          </mxGeometry>
        </mxCell>
        <mxCell id="SwwWCujhyExV8PyOqIJs-33" value="" style="endArrow=none;html=1;rounded=0;entryX=0;entryY=0.5;entryDx=0;entryDy=0;exitX=1;exitY=0.5;exitDx=0;exitDy=0;" parent="1" source="SwwWCujhyExV8PyOqIJs-1" target="SwwWCujhyExV8PyOqIJs-35" edge="1">
          <mxGeometry relative="1" as="geometry">
            <mxPoint x="140" y="230" as="sourcePoint" />
            <mxPoint x="300" y="230" as="targetPoint" />
          </mxGeometry>
        </mxCell>
        <mxCell id="SwwWCujhyExV8PyOqIJs-34" value="" style="endArrow=none;html=1;rounded=0;entryX=0;entryY=0.5;entryDx=0;entryDy=0;exitX=1;exitY=0.5;exitDx=0;exitDy=0;" parent="1" source="SwwWCujhyExV8PyOqIJs-35" target="SwwWCujhyExV8PyOqIJs-16" edge="1">
          <mxGeometry relative="1" as="geometry">
            <mxPoint x="130" y="270" as="sourcePoint" />
            <mxPoint x="290" y="270" as="targetPoint" />
          </mxGeometry>
        </mxCell>
        <mxCell id="SwwWCujhyExV8PyOqIJs-35" value="subscribedTo" style="shape=rhombus;perimeter=rhombusPerimeter;whiteSpace=wrap;html=1;align=center;" parent="1" vertex="1">
          <mxGeometry x="350" y="70" width="120" height="60" as="geometry" />
        </mxCell>
        <mxCell id="SwwWCujhyExV8PyOqIJs-36" value="N" style="resizable=0;html=1;align=right;verticalAlign=bottom;" parent="1" connectable="0" vertex="1">
          <mxGeometry x="570" y="100" as="geometry" />
        </mxCell>
        <mxCell id="SwwWCujhyExV8PyOqIJs-37" value="M" style="resizable=0;html=1;align=right;verticalAlign=bottom;" parent="1" connectable="0" vertex="1">
          <mxGeometry x="260" y="100" as="geometry" />
        </mxCell>
        <mxCell id="SwwWCujhyExV8PyOqIJs-38" value="cost" style="ellipse;whiteSpace=wrap;html=1;align=center;" parent="1" vertex="1">
          <mxGeometry x="440" width="100" height="40" as="geometry" />
        </mxCell>
        <mxCell id="SwwWCujhyExV8PyOqIJs-39" value="expiration" style="ellipse;whiteSpace=wrap;html=1;align=center;" parent="1" vertex="1">
          <mxGeometry x="330" width="100" height="40" as="geometry" />
        </mxCell>
        <mxCell id="SwwWCujhyExV8PyOqIJs-40" value="" style="endArrow=none;html=1;rounded=0;entryX=0.5;entryY=1;entryDx=0;entryDy=0;" parent="1" source="SwwWCujhyExV8PyOqIJs-35" target="SwwWCujhyExV8PyOqIJs-39" edge="1">
          <mxGeometry relative="1" as="geometry">
            <mxPoint x="400" y="240" as="sourcePoint" />
            <mxPoint x="560" y="240" as="targetPoint" />
          </mxGeometry>
        </mxCell>
        <mxCell id="SwwWCujhyExV8PyOqIJs-41" value="" style="endArrow=none;html=1;rounded=0;" parent="1" source="SwwWCujhyExV8PyOqIJs-38" target="SwwWCujhyExV8PyOqIJs-35" edge="1">
          <mxGeometry relative="1" as="geometry">
            <mxPoint x="235" y="150" as="sourcePoint" />
            <mxPoint x="395" y="150" as="targetPoint" />
          </mxGeometry>
        </mxCell>
        <mxCell id="SwwWCujhyExV8PyOqIJs-42" value="Video" style="whiteSpace=wrap;html=1;align=center;" parent="1" vertex="1">
          <mxGeometry x="360" y="260" width="100" height="40" as="geometry" />
        </mxCell>
        <mxCell id="SwwWCujhyExV8PyOqIJs-43" value="isFree" style="ellipse;whiteSpace=wrap;html=1;align=center;" parent="1" vertex="1">
          <mxGeometry x="240" y="390" width="100" height="40" as="geometry" />
        </mxCell>
        <mxCell id="SwwWCujhyExV8PyOqIJs-44" value="releaseDate" style="ellipse;whiteSpace=wrap;html=1;align=center;" parent="1" vertex="1">
          <mxGeometry x="315" y="200" width="100" height="40" as="geometry" />
        </mxCell>
        <mxCell id="SwwWCujhyExV8PyOqIJs-45" value="description" style="ellipse;whiteSpace=wrap;html=1;align=center;" parent="1" vertex="1">
          <mxGeometry x="380" y="150" width="100" height="40" as="geometry" />
        </mxCell>
        <mxCell id="SwwWCujhyExV8PyOqIJs-46" value="title" style="ellipse;whiteSpace=wrap;html=1;align=center;" parent="1" vertex="1">
          <mxGeometry x="520" y="210" width="100" height="40" as="geometry" />
        </mxCell>
        <mxCell id="SwwWCujhyExV8PyOqIJs-47" value="tags" style="ellipse;shape=doubleEllipse;margin=3;whiteSpace=wrap;html=1;align=center;" parent="1" vertex="1">
          <mxGeometry x="480" y="160" width="100" height="40" as="geometry" />
        </mxCell>
        <mxCell id="SwwWCujhyExV8PyOqIJs-48" value="videoID" style="ellipse;whiteSpace=wrap;html=1;align=center;fontStyle=4" parent="1" vertex="1">
          <mxGeometry x="330" y="370" width="100" height="40" as="geometry" />
        </mxCell>
        <mxCell id="SwwWCujhyExV8PyOqIJs-49" value="HostedOn" style="shape=rhombus;perimeter=rhombusPerimeter;whiteSpace=wrap;html=1;align=center;" parent="1" vertex="1">
          <mxGeometry x="570" y="250" width="120" height="60" as="geometry" />
        </mxCell>
        <mxCell id="SwwWCujhyExV8PyOqIJs-50" value="" style="shape=link;html=1;rounded=0;entryX=1;entryY=0.5;entryDx=0;entryDy=0;" parent="1" source="SwwWCujhyExV8PyOqIJs-49" target="SwwWCujhyExV8PyOqIJs-42" edge="1">
          <mxGeometry relative="1" as="geometry">
            <mxPoint x="400" y="220" as="sourcePoint" />
            <mxPoint x="560" y="220" as="targetPoint" />
          </mxGeometry>
        </mxCell>
        <mxCell id="SwwWCujhyExV8PyOqIJs-51" value="N" style="resizable=0;html=1;align=right;verticalAlign=bottom;" parent="SwwWCujhyExV8PyOqIJs-50" connectable="0" vertex="1">
          <mxGeometry x="1" relative="1" as="geometry">
            <mxPoint x="20" as="offset" />
          </mxGeometry>
        </mxCell>
        <mxCell id="SwwWCujhyExV8PyOqIJs-52" value="" style="endArrow=none;html=1;rounded=0;entryX=0.5;entryY=1;entryDx=0;entryDy=0;exitX=0.5;exitY=0;exitDx=0;exitDy=0;" parent="1" source="SwwWCujhyExV8PyOqIJs-49" target="SwwWCujhyExV8PyOqIJs-16" edge="1">
          <mxGeometry relative="1" as="geometry">
            <mxPoint x="400" y="220" as="sourcePoint" />
            <mxPoint x="560" y="220" as="targetPoint" />
          </mxGeometry>
        </mxCell>
        <mxCell id="SwwWCujhyExV8PyOqIJs-53" value="1" style="resizable=0;html=1;align=right;verticalAlign=bottom;" parent="1" connectable="0" vertex="1">
          <mxGeometry x="650" y="140" as="geometry" />
        </mxCell>
        <mxCell id="SwwWCujhyExV8PyOqIJs-54" value="WatchedVideo" style="shape=rhombus;perimeter=rhombusPerimeter;whiteSpace=wrap;html=1;align=center;" parent="1" vertex="1">
          <mxGeometry x="180" y="250" width="120" height="60" as="geometry" />
        </mxCell>
        <mxCell id="SwwWCujhyExV8PyOqIJs-55" value="" style="endArrow=none;html=1;rounded=0;entryX=1;entryY=1;entryDx=0;entryDy=0;exitX=0.5;exitY=0;exitDx=0;exitDy=0;" parent="1" source="SwwWCujhyExV8PyOqIJs-54" target="SwwWCujhyExV8PyOqIJs-1" edge="1">
          <mxGeometry relative="1" as="geometry">
            <mxPoint x="400" y="220" as="sourcePoint" />
            <mxPoint x="560" y="220" as="targetPoint" />
          </mxGeometry>
        </mxCell>
        <mxCell id="SwwWCujhyExV8PyOqIJs-56" value="" style="endArrow=none;html=1;rounded=0;entryX=0;entryY=0.5;entryDx=0;entryDy=0;exitX=1;exitY=0.5;exitDx=0;exitDy=0;" parent="1" source="SwwWCujhyExV8PyOqIJs-54" target="SwwWCujhyExV8PyOqIJs-42" edge="1">
          <mxGeometry relative="1" as="geometry">
            <mxPoint x="250" y="260" as="sourcePoint" />
            <mxPoint x="250" y="130" as="targetPoint" />
          </mxGeometry>
        </mxCell>
        <mxCell id="SwwWCujhyExV8PyOqIJs-57" value="M" style="resizable=0;html=1;align=right;verticalAlign=bottom;" parent="1" connectable="0" vertex="1">
          <mxGeometry x="350" y="280" as="geometry" />
        </mxCell>
        <mxCell id="SwwWCujhyExV8PyOqIJs-58" value="N" style="resizable=0;html=1;align=right;verticalAlign=bottom;" parent="1" connectable="0" vertex="1">
          <mxGeometry x="260" y="140" as="geometry" />
        </mxCell>
        <mxCell id="SwwWCujhyExV8PyOqIJs-59" value="isLiked" style="ellipse;whiteSpace=wrap;html=1;align=center;" parent="1" vertex="1">
          <mxGeometry x="240" y="160" width="100" height="40" as="geometry" />
        </mxCell>
        <mxCell id="SwwWCujhyExV8PyOqIJs-60" value="" style="endArrow=none;html=1;rounded=0;entryX=0.432;entryY=0.985;entryDx=0;entryDy=0;entryPerimeter=0;exitX=0.687;exitY=0.197;exitDx=0;exitDy=0;exitPerimeter=0;" parent="1" source="SwwWCujhyExV8PyOqIJs-54" target="SwwWCujhyExV8PyOqIJs-59" edge="1">
          <mxGeometry relative="1" as="geometry">
            <mxPoint x="110" y="260" as="sourcePoint" />
            <mxPoint x="270" y="260" as="targetPoint" />
          </mxGeometry>
        </mxCell>
        <mxCell id="SwwWCujhyExV8PyOqIJs-63" value="Show" style="whiteSpace=wrap;html=1;align=center;" parent="1" vertex="1">
          <mxGeometry x="360" y="450" width="100" height="40" as="geometry" />
        </mxCell>
        <mxCell id="SwwWCujhyExV8PyOqIJs-64" value="title" style="ellipse;whiteSpace=wrap;html=1;align=center;fontStyle=0" parent="1" vertex="1">
          <mxGeometry x="280" y="520" width="100" height="40" as="geometry" />
        </mxCell>
        <mxCell id="SwwWCujhyExV8PyOqIJs-65" value="description" style="ellipse;whiteSpace=wrap;html=1;align=center;" parent="1" vertex="1">
          <mxGeometry x="450" y="520" width="100" height="40" as="geometry" />
        </mxCell>
        <mxCell id="SwwWCujhyExV8PyOqIJs-71" value="N" style="resizable=0;html=1;align=right;verticalAlign=bottom;" parent="1" connectable="0" vertex="1">
          <mxGeometry x="470" y="470" as="geometry" />
        </mxCell>
        <mxCell id="SwwWCujhyExV8PyOqIJs-76" value="" style="endArrow=none;html=1;rounded=0;entryX=0.25;entryY=1;entryDx=0;entryDy=0;exitX=0;exitY=0.5;exitDx=0;exitDy=0;" parent="1" source="sXw0-_sQWs9Duji5EPS1-1" target="SwwWCujhyExV8PyOqIJs-1" edge="1">
          <mxGeometry relative="1" as="geometry">
            <mxPoint x="79.99999999999955" y="310" as="sourcePoint" />
            <mxPoint x="210" y="229.5" as="targetPoint" />
            <Array as="points" />
          </mxGeometry>
        </mxCell>
        <mxCell id="SwwWCujhyExV8PyOqIJs-80" value="" style="endArrow=none;html=1;rounded=0;entryX=0.25;entryY=1;entryDx=0;entryDy=0;exitX=0.6;exitY=0.005;exitDx=0;exitDy=0;exitPerimeter=0;" parent="1" source="SwwWCujhyExV8PyOqIJs-64" target="SwwWCujhyExV8PyOqIJs-63" edge="1">
          <mxGeometry relative="1" as="geometry">
            <mxPoint x="210" y="520" as="sourcePoint" />
            <mxPoint x="370" y="520" as="targetPoint" />
          </mxGeometry>
        </mxCell>
        <mxCell id="SwwWCujhyExV8PyOqIJs-81" value="" style="endArrow=none;html=1;rounded=0;entryX=1;entryY=0;entryDx=0;entryDy=0;exitX=0.5;exitY=1;exitDx=0;exitDy=0;" parent="1" source="SwwWCujhyExV8PyOqIJs-42" target="SwwWCujhyExV8PyOqIJs-48" edge="1">
          <mxGeometry relative="1" as="geometry">
            <mxPoint x="400" y="350" as="sourcePoint" />
            <mxPoint x="560" y="350" as="targetPoint" />
          </mxGeometry>
        </mxCell>
        <mxCell id="SwwWCujhyExV8PyOqIJs-82" value="M" style="resizable=0;html=1;align=right;verticalAlign=bottom;" parent="1" connectable="0" vertex="1">
          <mxGeometry x="180" y="140" as="geometry" />
        </mxCell>
        <mxCell id="SwwWCujhyExV8PyOqIJs-88" value="" style="endArrow=none;html=1;rounded=0;entryX=0.25;entryY=1;entryDx=0;entryDy=0;exitX=1;exitY=0.5;exitDx=0;exitDy=0;" parent="1" source="sXw0-_sQWs9Duji5EPS1-2" target="SwwWCujhyExV8PyOqIJs-42" edge="1">
          <mxGeometry relative="1" as="geometry">
            <mxPoint x="280" y="360" as="sourcePoint" />
            <mxPoint x="380" y="360" as="targetPoint" />
          </mxGeometry>
        </mxCell>
        <mxCell id="SwwWCujhyExV8PyOqIJs-89" value="" style="endArrow=none;html=1;rounded=0;entryX=0;entryY=0.5;entryDx=0;entryDy=0;exitX=1;exitY=0.5;exitDx=0;exitDy=0;" parent="1" source="sXw0-_sQWs9Duji5EPS1-1" target="SwwWCujhyExV8PyOqIJs-63" edge="1">
          <mxGeometry relative="1" as="geometry">
            <mxPoint x="280" y="470" as="sourcePoint" />
            <mxPoint x="380" y="360" as="targetPoint" />
          </mxGeometry>
        </mxCell>
        <mxCell id="SwwWCujhyExV8PyOqIJs-90" value="N" style="resizable=0;html=1;align=right;verticalAlign=bottom;" parent="1" connectable="0" vertex="1">
          <mxGeometry x="350" y="310" as="geometry" />
        </mxCell>
        <mxCell id="SwwWCujhyExV8PyOqIJs-91" value="N" style="resizable=0;html=1;align=right;verticalAlign=bottom;" parent="1" connectable="0" vertex="1">
          <mxGeometry x="350" y="460" as="geometry" />
        </mxCell>
        <mxCell id="SwwWCujhyExV8PyOqIJs-95" value="" style="endArrow=none;html=1;rounded=0;entryX=0.75;entryY=1;entryDx=0;entryDy=0;exitX=0.5;exitY=0;exitDx=0;exitDy=0;" parent="1" source="SwwWCujhyExV8PyOqIJs-65" target="SwwWCujhyExV8PyOqIJs-63" edge="1">
          <mxGeometry relative="1" as="geometry">
            <mxPoint x="390" y="510" as="sourcePoint" />
            <mxPoint x="550" y="510" as="targetPoint" />
          </mxGeometry>
        </mxCell>
        <mxCell id="SwwWCujhyExV8PyOqIJs-96" value="" style="endArrow=none;html=1;rounded=0;exitX=1;exitY=0;exitDx=0;exitDy=0;" parent="1" source="SwwWCujhyExV8PyOqIJs-42" target="SwwWCujhyExV8PyOqIJs-46" edge="1">
          <mxGeometry relative="1" as="geometry">
            <mxPoint x="220" y="360" as="sourcePoint" />
            <mxPoint x="380" y="360" as="targetPoint" />
          </mxGeometry>
        </mxCell>
        <mxCell id="SwwWCujhyExV8PyOqIJs-97" value="" style="endArrow=none;html=1;rounded=0;exitX=0.347;exitY=0.997;exitDx=0;exitDy=0;exitPerimeter=0;" parent="1" source="SwwWCujhyExV8PyOqIJs-42" target="SwwWCujhyExV8PyOqIJs-43" edge="1">
          <mxGeometry relative="1" as="geometry">
            <mxPoint x="240" y="340" as="sourcePoint" />
            <mxPoint x="400" y="340" as="targetPoint" />
          </mxGeometry>
        </mxCell>
        <mxCell id="SwwWCujhyExV8PyOqIJs-98" value="" style="endArrow=none;html=1;rounded=0;entryX=0.5;entryY=1;entryDx=0;entryDy=0;exitX=0.824;exitY=-0.055;exitDx=0;exitDy=0;exitPerimeter=0;" parent="1" source="SwwWCujhyExV8PyOqIJs-42" target="SwwWCujhyExV8PyOqIJs-47" edge="1">
          <mxGeometry relative="1" as="geometry">
            <mxPoint x="240" y="380" as="sourcePoint" />
            <mxPoint x="400" y="380" as="targetPoint" />
          </mxGeometry>
        </mxCell>
        <mxCell id="SwwWCujhyExV8PyOqIJs-99" value="" style="endArrow=none;html=1;rounded=0;exitX=0.44;exitY=0.005;exitDx=0;exitDy=0;exitPerimeter=0;" parent="1" source="SwwWCujhyExV8PyOqIJs-42" target="SwwWCujhyExV8PyOqIJs-44" edge="1">
          <mxGeometry relative="1" as="geometry">
            <mxPoint x="220" y="360" as="sourcePoint" />
            <mxPoint x="380" y="360" as="targetPoint" />
          </mxGeometry>
        </mxCell>
        <mxCell id="SwwWCujhyExV8PyOqIJs-100" value="" style="endArrow=none;html=1;rounded=0;entryX=0.5;entryY=1;entryDx=0;entryDy=0;exitX=0.75;exitY=0;exitDx=0;exitDy=0;" parent="1" source="SwwWCujhyExV8PyOqIJs-42" target="SwwWCujhyExV8PyOqIJs-45" edge="1">
          <mxGeometry relative="1" as="geometry">
            <mxPoint x="230" y="370" as="sourcePoint" />
            <mxPoint x="390" y="370" as="targetPoint" />
          </mxGeometry>
        </mxCell>
        <mxCell id="SwwWCujhyExV8PyOqIJs-101" value="showID" style="ellipse;whiteSpace=wrap;html=1;align=center;fontStyle=4" parent="1" vertex="1">
          <mxGeometry x="360" y="570" width="100" height="40" as="geometry" />
        </mxCell>
        <mxCell id="SwwWCujhyExV8PyOqIJs-102" value="" style="endArrow=none;html=1;rounded=0;entryX=0.5;entryY=0;entryDx=0;entryDy=0;exitX=0.5;exitY=1;exitDx=0;exitDy=0;" parent="1" source="SwwWCujhyExV8PyOqIJs-63" target="SwwWCujhyExV8PyOqIJs-101" edge="1">
          <mxGeometry relative="1" as="geometry">
            <mxPoint x="470" y="480" as="sourcePoint" />
            <mxPoint x="550" y="480" as="targetPoint" />
          </mxGeometry>
        </mxCell>
        <mxCell id="SwwWCujhyExV8PyOqIJs-104" value="userID" style="ellipse;whiteSpace=wrap;html=1;align=center;fontStyle=4" parent="1" vertex="1">
          <mxGeometry x="140" y="-40" width="100" height="40" as="geometry" />
        </mxCell>
        <mxCell id="SwwWCujhyExV8PyOqIJs-105" value="" style="endArrow=none;html=1;rounded=0;entryX=0.5;entryY=1;entryDx=0;entryDy=0;exitX=0.5;exitY=0;exitDx=0;exitDy=0;" parent="1" source="SwwWCujhyExV8PyOqIJs-1" target="SwwWCujhyExV8PyOqIJs-104" edge="1">
          <mxGeometry relative="1" as="geometry">
            <mxPoint x="220" y="190" as="sourcePoint" />
            <mxPoint x="380" y="190" as="targetPoint" />
          </mxGeometry>
        </mxCell>
        <mxCell id="sXw0-_sQWs9Duji5EPS1-1" value="userListShow" style="shape=rhombus;perimeter=rhombusPerimeter;whiteSpace=wrap;html=1;align=center;" parent="1" vertex="1">
          <mxGeometry x="50" y="440" width="120" height="60" as="geometry" />
        </mxCell>
        <mxCell id="sXw0-_sQWs9Duji5EPS1-2" value="userListVideo" style="shape=rhombus;perimeter=rhombusPerimeter;whiteSpace=wrap;html=1;align=center;" parent="1" vertex="1">
          <mxGeometry x="140" y="340" width="120" height="60" as="geometry" />
        </mxCell>
        <mxCell id="sXw0-_sQWs9Duji5EPS1-3" value="" style="endArrow=none;html=1;exitX=0;exitY=0.5;exitDx=0;exitDy=0;entryX=0.641;entryY=0.985;entryDx=0;entryDy=0;entryPerimeter=0;" parent="1" source="sXw0-_sQWs9Duji5EPS1-2" target="SwwWCujhyExV8PyOqIJs-1" edge="1">
          <mxGeometry width="50" height="50" relative="1" as="geometry">
            <mxPoint x="530" y="280" as="sourcePoint" />
            <mxPoint x="580" y="230" as="targetPoint" />
          </mxGeometry>
        </mxCell>
        <mxCell id="sXw0-_sQWs9Duji5EPS1-4" value="M" style="resizable=0;html=1;align=right;verticalAlign=bottom;" parent="1" connectable="0" vertex="1">
          <mxGeometry x="220" y="140" as="geometry" />
        </mxCell>
        <mxCell id="sXw0-_sQWs9Duji5EPS1-6" value="inSeason" style="shape=rhombus;perimeter=rhombusPerimeter;whiteSpace=wrap;html=1;align=center;" parent="1" vertex="1">
          <mxGeometry x="540" y="340" width="120" height="60" as="geometry" />
        </mxCell>
        <mxCell id="sXw0-_sQWs9Duji5EPS1-7" value="" style="endArrow=none;html=1;rounded=0;exitX=0.75;exitY=1;exitDx=0;exitDy=0;entryX=0;entryY=0.5;entryDx=0;entryDy=0;" parent="1" source="SwwWCujhyExV8PyOqIJs-42" target="sXw0-_sQWs9Duji5EPS1-6" edge="1">
          <mxGeometry relative="1" as="geometry">
            <mxPoint x="470" y="370" as="sourcePoint" />
            <mxPoint x="630" y="370" as="targetPoint" />
            <Array as="points">
              <mxPoint x="435" y="370" />
            </Array>
          </mxGeometry>
        </mxCell>
        <mxCell id="sXw0-_sQWs9Duji5EPS1-8" value="" style="endArrow=none;html=1;rounded=0;entryX=1;entryY=0.5;entryDx=0;entryDy=0;exitX=1;exitY=0.5;exitDx=0;exitDy=0;" parent="1" source="SwwWCujhyExV8PyOqIJs-63" target="sXw0-_sQWs9Duji5EPS1-6" edge="1">
          <mxGeometry relative="1" as="geometry">
            <mxPoint x="790" y="450" as="sourcePoint" />
            <mxPoint x="630" y="370" as="targetPoint" />
            <Array as="points">
              <mxPoint x="790" y="470" />
              <mxPoint x="790" y="370" />
            </Array>
          </mxGeometry>
        </mxCell>
        <mxCell id="sXw0-_sQWs9Duji5EPS1-9" value="N" style="resizable=0;html=1;align=right;verticalAlign=bottom;" parent="1" connectable="0" vertex="1">
          <mxGeometry x="460.0017647058824" y="320" as="geometry" />
        </mxCell>
        <mxCell id="sXw0-_sQWs9Duji5EPS1-11" value="seasonNumber" style="ellipse;whiteSpace=wrap;html=1;align=center;" parent="1" vertex="1">
          <mxGeometry x="650" y="300" width="100" height="40" as="geometry" />
        </mxCell>
        <mxCell id="sXw0-_sQWs9Duji5EPS1-12" value="episodeNumber" style="ellipse;whiteSpace=wrap;html=1;align=center;" parent="1" vertex="1">
          <mxGeometry x="480" y="400" width="100" height="40" as="geometry" />
        </mxCell>
        <mxCell id="sXw0-_sQWs9Duji5EPS1-13" value="" style="endArrow=none;html=1;rounded=0;entryX=0;entryY=0.5;entryDx=0;entryDy=0;exitX=0.5;exitY=0;exitDx=0;exitDy=0;" parent="1" source="sXw0-_sQWs9Duji5EPS1-6" target="sXw0-_sQWs9Duji5EPS1-11" edge="1">
          <mxGeometry relative="1" as="geometry">
            <mxPoint x="470" y="370" as="sourcePoint" />
            <mxPoint x="630" y="370" as="targetPoint" />
          </mxGeometry>
        </mxCell>
        <mxCell id="sXw0-_sQWs9Duji5EPS1-14" value="" style="endArrow=none;html=1;rounded=0;entryX=0.5;entryY=1;entryDx=0;entryDy=0;exitX=1;exitY=0.5;exitDx=0;exitDy=0;" parent="1" source="sXw0-_sQWs9Duji5EPS1-12" target="sXw0-_sQWs9Duji5EPS1-6" edge="1">
          <mxGeometry relative="1" as="geometry">
            <mxPoint x="470" y="370" as="sourcePoint" />
            <mxPoint x="630" y="370" as="targetPoint" />
          </mxGeometry>
        </mxCell>
      </root>
    </mxGraphModel>
  </diagram>
</mxfile>
